<?xml version="1.0" standalone="no"?>
<!DOCTYPE svg PUBLIC "-//W3C//DTD SVG 20010904//EN"
 "http://www.w3.org/TR/2001/REC-SVG-20010904/DTD/svg10.dtd">
<svg version="1.0" xmlns="http://www.w3.org/2000/svg"
 width="49.000000pt" height="49.000000pt" viewBox="0 0 49.000000 49.000000"
 preserveAspectRatio="xMidYMid meet">
<metadata>
Created by potrace 1.16, written by Peter Selinger 2001-2019
</metadata>
<g transform="translate(0.000000,49.000000) scale(0.100000,-0.100000)"
fill="#000000" stroke="none">
<path d="M0 398 l0 -93 19 40 c23 52 74 103 126 126 l40 19 -92 0 -93 0 0 -92z"/>
<path d="M345 471 c52 -24 113 -88 130 -137 14 -38 14 -37 15 59 l0 97 -92 0
-93 0 40 -19z"/>
<path d="M155 441 c-143 -66 -169 -260 -49 -359 69 -57 147 -66 230 -28 161
75 164 299 5 383 -54 28 -130 30 -186 4z m64 -174 c-19 -16 -23 -22 -9 -13 38
25 50 29 58 21 4 -4 -6 -18 -21 -31 -15 -13 -24 -24 -20 -24 18 1 53 40 53 59
0 14 6 21 20 21 17 0 20 -7 20 -40 0 -33 3 -40 20 -40 17 0 20 7 20 40 0 29 4
40 15 40 11 0 15 -11 15 -40 0 -36 3 -40 25 -40 16 0 25 -6 25 -15 0 -12 -16
-15 -80 -15 -66 0 -80 3 -80 16 0 13 -4 12 -26 -5 l-26 -20 -29 21 c-27 20
-30 20 -47 5 -10 -9 -33 -17 -50 -17 l-32 0 0 55 0 55 32 0 c17 0 39 -7 49
-16 17 -15 20 -15 46 4 15 11 34 17 41 14 11 -4 6 -13 -19 -35z"/>
<path d="M100 245 c0 -20 4 -26 18 -23 9 2 17 12 17 23 0 11 -8 21 -17 23 -14
3 -18 -3 -18 -23z"/>
<path d="M475 161 c-9 -44 -73 -111 -129 -137 l-51 -24 98 0 97 0 0 95 c0 52
-2 95 -4 95 -3 0 -7 -13 -11 -29z"/>
<path d="M0 93 l0 -93 98 1 c75 1 90 3 66 10 -44 13 -124 86 -145 134 l-19 40
0 -92z"/>
</g>
</svg>
